<svg xmlns="http://www.w3.org/2000/svg" viewBox="0 0 512 512" width="512" height="512">
  <defs>
    <linearGradient id="bg" x1="0%" y1="0%" x2="100%" y2="100%">
      <stop offset="0%" style="stop-color:#1e40af"/>
      <stop offset="100%" style="stop-color:#2563eb"/>
    </linearGradient>
  </defs>
  <!-- Background -->
  <rect width="512" height="512" rx="96" fill="url(#bg)"/>
  <!-- Shield shape -->
  <path d="M256 72c-60 0-120 28-148 52a8 8 0 0 0-2.8 6.4l0 120c0 80 48 148 150 192a8 8 0 0 0 1.6 0c102-44 150-112 150-192l0-120a8 8 0 0 0-2.8-6.4C376 100 316 72 256 72z" fill="rgba(255,255,255,0.15)" stroke="rgba(255,255,255,0.3)" stroke-width="2"/>
  <!-- Medical cross -->
  <rect x="224" y="160" width="64" height="192" rx="12" fill="white"/>
  <rect x="160" y="224" width="192" height="64" rx="12" fill="white"/>
  <!-- M letter bottom -->
  <text x="256" y="468" text-anchor="middle" font-family="Inter, system-ui, sans-serif" font-weight="700" font-size="48" fill="rgba(255,255,255,0.7)" letter-spacing="4">MEDWARD</text>
</svg>
