<?xml version="1.0" encoding="UTF-8"?>
<svg xmlns="http://www.w3.org/2000/svg" width="72" height="72" viewBox="0 0 512 512">
  <defs>
    <linearGradient id="bg" x1="0" y1="0" x2="512" y2="512" gradientUnits="userSpaceOnUse">
      <stop offset="0%" stop-color="#071E33"/>
      <stop offset="50%" stop-color="#0E3A5E"/>
      <stop offset="100%" stop-color="#1565C0"/>
    </linearGradient>
    <radialGradient id="glow" cx="30%" cy="25%" r="65%">
      <stop offset="0%" stop-color="#42A5F5" stop-opacity="0.12"/>
      <stop offset="100%" stop-color="#071E33" stop-opacity="0"/>
    </radialGradient>
    <linearGradient id="sf" x1="256" y1="78" x2="256" y2="510" gradientUnits="userSpaceOnUse">
      <stop offset="0%" stop-color="#FFFFFF"/>
      <stop offset="100%" stop-color="#E0E8F0"/>
    </linearGradient>
    <linearGradient id="cf" x1="160" y1="170" x2="352" y2="370" gradientUnits="userSpaceOnUse">
      <stop offset="0%" stop-color="#0D47A1"/>
      <stop offset="100%" stop-color="#1976D2"/>
    </linearGradient>
  </defs>
  <rect width="512" height="512" rx="112" fill="url(#bg)"/>
  <rect width="512" height="512" rx="112" fill="url(#glow)"/>
  <path d="M256 86c-70 0-137 29-172 58-9 8-14 19-14 31v102c0 98 59 179 178 231 5 2 11 2 16 0 119-52 178-133 178-231V175c0-12-5-23-14-31-35-29-102-58-172-58z" fill="#000" opacity="0.18" transform="translate(0,7)"/>
  <path d="M256 86c-70 0-137 29-172 58-9 8-14 19-14 31v102c0 98 59 179 178 231 5 2 11 2 16 0 119-52 178-133 178-231V175c0-12-5-23-14-31-35-29-102-58-172-58z" fill="url(#sf)"/>
  <path d="M256 86c-70 0-137 29-172 58-9 8-14 19-14 31v102c0 98 59 179 178 231 5 2 11 2 16 0 119-52 178-133 178-231V175c0-12-5-23-14-31-35-29-102-58-172-58z" fill="none" stroke="#FFF" stroke-width="1.5" opacity="0.2"/>
  <rect x="229" y="174" width="54" height="192" rx="13" fill="url(#cf)"/>
  <rect x="161" y="242" width="190" height="54" rx="13" fill="url(#cf)"/>
</svg>