<svg xmlns="http://www.w3.org/2000/svg" viewBox="0 0 192 192" width="192" height="192">
  <defs>
    <linearGradient id="bg" x1="0%" y1="0%" x2="100%" y2="100%">
      <stop offset="0%" style="stop-color:#1e40af"/>
      <stop offset="100%" style="stop-color:#2563eb"/>
    </linearGradient>
  </defs>
  <rect width="192" height="192" rx="36" fill="url(#bg)"/>
  <path d="M96 28c-22 0-45 10-56 20a3 3 0 0 0-1 2.4l0 45c0 30 18 56 57 72a3 3 0 0 0 0.6 0c39-16 57-42 57-72l0-45a3 3 0 0 0-1-2.4C142 38 118 28 96 28z" fill="rgba(255,255,255,0.15)" stroke="rgba(255,255,255,0.3)" stroke-width="1"/>
  <rect x="84" y="58" width="24" height="76" rx="5" fill="white"/>
  <rect x="58" y="84" width="76" height="24" rx="5" fill="white"/>
</svg>
