<svg xmlns="http://www.w3.org/2000/svg" viewBox="0 0 144 144" width="144" height="144">
  <defs>
    <linearGradient id="bg" x1="0%" y1="0%" x2="100%" y2="100%">
      <stop offset="0%" style="stop-color:#1e40af"/>
      <stop offset="100%" style="stop-color:#2563eb"/>
    </linearGradient>
  </defs>
  <rect width="144" height="144" rx="28" fill="url(#bg)"/>
  <path d="M72 20c-17 0-34 8-42 15a2 2 0 0 0-1 1.8l0 34c0 23 14 42 43 54a2 2 0 0 0 0.4 0c29-12 43-31 43-54l0-34a2 2 0 0 0-1-1.8C106 28 89 20 72 20z" fill="rgba(255,255,255,0.15)" stroke="rgba(255,255,255,0.3)" stroke-width="1"/>
  <rect x="63" y="43" width="18" height="58" rx="4" fill="white"/>
  <rect x="43" y="63" width="58" height="18" rx="4" fill="white"/>
</svg>
