<svg xmlns="http://www.w3.org/2000/svg" viewBox="0 0 152 152" width="152" height="152">
  <defs>
    <linearGradient id="bg" x1="0%" y1="0%" x2="100%" y2="100%">
      <stop offset="0%" style="stop-color:#1e40af"/>
      <stop offset="100%" style="stop-color:#2563eb"/>
    </linearGradient>
  </defs>
  <rect width="152" height="152" rx="30" fill="url(#bg)"/>
  <path d="M76 22c-18 0-36 8-44 16a2.5 2.5 0 0 0-1 2l0 36c0 24 14 44 45 57a2 2 0 0 0 0.4 0c31-13 45-33 45-57l0-36a2.5 2.5 0 0 0-1-2C112 30 94 22 76 22z" fill="rgba(255,255,255,0.15)" stroke="rgba(255,255,255,0.3)" stroke-width="1"/>
  <rect x="67" y="46" width="18" height="60" rx="4" fill="white"/>
  <rect x="46" y="67" width="60" height="18" rx="4" fill="white"/>
</svg>
