<?xml version="1.0" encoding="UTF-8"?>
<svg xmlns="http://www.w3.org/2000/svg" width="180" height="180" viewBox="0 0 512 512">
  <defs>
    <linearGradient id="mw-bg" x1="0%" y1="0%" x2="100%" y2="100%">
      <stop offset="0%" stop-color="#0C2F4A"/>
      <stop offset="100%" stop-color="#1D6FA8"/>
    </linearGradient>
    <linearGradient id="mw-cross" x1="0%" y1="0%" x2="100%" y2="100%">
      <stop offset="0%" stop-color="#0B3656"/>
      <stop offset="100%" stop-color="#145984"/>
    </linearGradient>
  </defs>
  <rect x="0" y="0" width="512" height="512" rx="112" fill="url(#mw-bg)"/>
  <rect x="42" y="42" width="428" height="428" rx="96" fill="#FFFFFF" opacity="0.08"/>
  <path d="M256 86c-70 0-137 29-172 58-9 8-14 19-14 31v102c0 98 59 179 178 231 5 2 11 2 16 0 119-52 178-133 178-231V175c0-12-5-23-14-31-35-29-102-58-172-58z" fill="#FFFFFF"/>
  <rect x="230" y="178" width="52" height="186" rx="14" fill="url(#mw-cross)"/>
  <rect x="163" y="245" width="186" height="52" rx="14" fill="url(#mw-cross)"/>
</svg>