<svg xmlns="http://www.w3.org/2000/svg" viewBox="0 0 180 180" width="180" height="180">
  <defs>
    <linearGradient id="bg" x1="0%" y1="0%" x2="100%" y2="100%">
      <stop offset="0%" style="stop-color:#1e40af"/>
      <stop offset="100%" style="stop-color:#2563eb"/>
    </linearGradient>
  </defs>
  <rect width="180" height="180" rx="34" fill="url(#bg)"/>
  <path d="M90 26c-21 0-42 10-52 18a3 3 0 0 0-1 2.2l0 42c0 28 17 52 53 67a3 3 0 0 0 0.6 0c36-15 53-39 53-67l0-42a3 3 0 0 0-1-2.2C132 36 111 26 90 26z" fill="rgba(255,255,255,0.15)" stroke="rgba(255,255,255,0.3)" stroke-width="1"/>
  <rect x="79" y="54" width="22" height="72" rx="5" fill="white"/>
  <rect x="54" y="79" width="72" height="22" rx="5" fill="white"/>
</svg>
