<?xml version="1.0" encoding="UTF-8"?>
<svg xmlns="http://www.w3.org/2000/svg" width="32" height="32" viewBox="0 0 512 512">
  <defs>
    <linearGradient id="bg" x1="0" y1="0" x2="512" y2="512" gradientUnits="userSpaceOnUse">
      <stop offset="0%" stop-color="#0B2740"/>
      <stop offset="100%" stop-color="#114A70"/>
    </linearGradient>
    <radialGradient id="glow" cx="36%" cy="22%" r="72%">
      <stop offset="0%" stop-color="#7BC7FF" stop-opacity="0.25"/>
      <stop offset="100%" stop-color="#7BC7FF" stop-opacity="0"/>
    </radialGradient>
    <linearGradient id="panel" x1="96" y1="96" x2="416" y2="416" gradientUnits="userSpaceOnUse">
      <stop offset="0%" stop-color="#2375A6"/>
      <stop offset="100%" stop-color="#18537D"/>
    </linearGradient>
    <linearGradient id="shield" x1="256" y1="118" x2="256" y2="428" gradientUnits="userSpaceOnUse">
      <stop offset="0%" stop-color="#F9FCFF"/>
      <stop offset="100%" stop-color="#DCEAF5"/>
    </linearGradient>
    <linearGradient id="cross" x1="174" y1="174" x2="338" y2="338" gradientUnits="userSpaceOnUse">
      <stop offset="0%" stop-color="#1D6E9E"/>
      <stop offset="100%" stop-color="#184F79"/>
    </linearGradient>
    <linearGradient id="pulse" x1="142" y1="214" x2="370" y2="304" gradientUnits="userSpaceOnUse">
      <stop offset="0%" stop-color="#FF8A8A"/>
      <stop offset="100%" stop-color="#D92B44"/>
    </linearGradient>
    <clipPath id="shieldClip">
      <path d="M256 118 C194 118 152 153 152 208 V286 C152 351 198 402 256 428 C314 402 360 351 360 286 V208 C360 153 318 118 256 118 Z"/>
    </clipPath>
  </defs>
  <rect width="512" height="512" rx="108" fill="url(#bg)"/>
  <rect width="512" height="512" rx="108" fill="url(#glow)"/>
  <rect x="96" y="96" width="320" height="320" rx="96" fill="url(#panel)" stroke="#FFFFFF" stroke-opacity="0.2" stroke-width="2"/>
  <path d="M256 118 C194 118 152 153 152 208 V286 C152 351 198 402 256 428 C314 402 360 351 360 286 V208 C360 153 318 118 256 118 Z" fill="#000" opacity="0.15" transform="translate(0,8)"/>
  <path d="M256 118 C194 118 152 153 152 208 V286 C152 351 198 402 256 428 C314 402 360 351 360 286 V208 C360 153 318 118 256 118 Z" fill="url(#shield)" stroke="#FFFFFF" stroke-opacity="0.35" stroke-width="2"/>
  <g clip-path="url(#shieldClip)">
    <rect x="226" y="174" width="60" height="164" rx="20" fill="url(#cross)"/>
    <rect x="174" y="226" width="164" height="60" rx="20" fill="url(#cross)"/>
    <path d="M142 256 H208 L232 214 L258 304 L286 248 H370" fill="none" stroke="url(#pulse)" stroke-width="16" stroke-linecap="round" stroke-linejoin="round"/>
  </g>
</svg>