<?xml version="1.0" encoding="UTF-8"?>
<svg xmlns="http://www.w3.org/2000/svg" width="32" height="32" viewBox="0 0 512 512">
  <defs>
    <linearGradient id="bg" x1="0" y1="0" x2="512" y2="512" gradientUnits="userSpaceOnUse">
      <stop offset="0%" stop-color="#0A1929"/>
      <stop offset="100%" stop-color="#1B3A5C"/>
    </linearGradient>
    <linearGradient id="hf" x1="256" y1="62" x2="256" y2="418" gradientUnits="userSpaceOnUse">
      <stop offset="0%" stop-color="#EF5350"/>
      <stop offset="100%" stop-color="#C62828"/>
    </linearGradient>
    <clipPath id="hc">
      <path d="M256 418 C230 394 72 284 72 186 C72 110 128 62 196 62 C236 62 256 98 256 120 C256 98 276 62 316 62 C384 62 440 110 440 186 C440 284 282 394 256 418Z"/>
    </clipPath>
  </defs>
  <rect width="512" height="512" rx="108" fill="url(#bg)"/>
  <path d="M256 418 C230 394 72 284 72 186 C72 110 128 62 196 62 C236 62 256 98 256 120 C256 98 276 62 316 62 C384 62 440 110 440 186 C440 284 282 394 256 418Z" fill="#000" opacity="0.2" transform="translate(0,6)"/>
  <path d="M256 418 C230 394 72 284 72 186 C72 110 128 62 196 62 C236 62 256 98 256 120 C256 98 276 62 316 62 C384 62 440 110 440 186 C440 284 282 394 256 418Z" fill="url(#hf)"/>
  <g clip-path="url(#hc)">
    <path d="M56 240 L188 240 L222 240 L244 148 L264 332 L286 240 L322 240 L456 240" fill="none" stroke="#FFF" stroke-width="7" stroke-linecap="round" stroke-linejoin="round" opacity="0.95"/>
  </g>
</svg>